<svg width="20" height="20" viewBox="0 0 20 20" fill="none" xmlns="http://www.w3.org/2000/svg">
  <g transform="translate(-41 -249)">
    <path d="M50 264H52V258H50V264V264M51 256C51.2833 256 51.5208 255.904 51.7125 255.713C51.9042 255.521 52 255.283 52 255C52 254.717 51.9042 254.479 51.7125 254.287C51.5208 254.096 51.2833 254 51 254C50.7167 254 50.4792 254.096 50.2875 254.287C50.0958 254.479 50 254.717 50 255C50 255.283 50.0958 255.521 50.2875 255.713C50.4792 255.904 50.7167 256 51 256V256M51 269C49.6167 269 48.3167 268.737 47.1 268.212C45.8833 267.687 44.825 266.975 43.925 266.075C43.025 265.175 42.3125 264.117 41.7875 262.9C41.2625 261.683 41 260.383 41 259C41 257.617 41.2625 256.317 41.7875 255.1C42.3125 253.883 43.025 252.825 43.925 251.925C44.825 251.025 45.8833 250.312 47.1 249.788C48.3167 249.263 49.6167 249 51 249C52.3833 249 53.6833 249.263 54.9 249.788C56.1167 250.312 57.175 251.025 58.075 251.925C58.975 252.825 59.6875 253.883 60.2125 255.1C60.7375 256.317 61 257.617 61 259C61 260.383 60.7375 261.683 60.2125 262.9C59.6875 264.117 58.975 265.175 58.075 266.075C57.175 266.975 56.1167 267.687 54.9 268.212C53.6833 268.737 52.3833 269 51 269V269M51 267C53.2333 267 55.125 266.225 56.675 264.675C58.225 263.125 59 261.233 59 259C59 256.767 58.225 254.875 56.675 253.325C55.125 251.775 53.2333 251 51 251C48.7667 251 46.875 251.775 45.325 253.325C43.775 254.875 43 256.767 43 259C43 261.233 43.775 263.125 45.325 264.675C46.875 266.225 48.7667 267 51 267V267M51 259V259V259V259V259V259V259V259V259V259" fill="#ICON_COLOR#"/>
  </g>
</svg>
