<svg width="20" height="20" viewBox="0 0 20 20" fill="none" xmlns="http://www.w3.org/2000/svg">
  <g transform="translate(-41 -203)">
    <path d="M50 218H46C44.6167 218 43.4375 217.513 42.4625 216.538C41.4875 215.563 41 214.383 41 213C41 211.617 41.4875 210.438 42.4625 209.462C43.4375 208.487 44.6167 208 46 208H50V210H46C45.1667 210 44.4583 210.292 43.875 210.875C43.2917 211.458 43 212.167 43 213C43 213.833 43.2917 214.542 43.875 215.125C44.4583 215.708 45.1667 216 46 216H50V218V218M47 214V212H55V214H47V214M52 218V216H56C56.8333 216 57.5417 215.708 58.125 215.125C58.7083 214.542 59 213.833 59 213C59 212.167 58.7083 211.458 58.125 210.875C57.5417 210.292 56.8333 210 56 210H52V208H56C57.3833 208 58.5625 208.487 59.5375 209.462C60.5125 210.438 61 211.617 61 213C61 214.383 60.5125 215.563 59.5375 216.538C58.5625 217.513 57.3833 218 56 218H52V218" fill="#ICON_COLOR#"/>
  </g>
</svg>
