<svg width="20" height="20" viewBox="0 0 20 20" fill="none" xmlns="http://www.w3.org/2000/svg">
  <g transform="translate(-41 -109)">
    <path d="M48.3 129L47.9 125.8C47.6833 125.717 47.4792 125.617 47.2875 125.5C47.0958 125.383 46.9083 125.258 46.725 125.125L43.75 126.375L41 121.625L43.575 119.675C43.5583 119.558 43.55 119.446 43.55 119.337C43.55 119.229 43.55 119.117 43.55 119C43.55 118.883 43.55 118.771 43.55 118.663C43.55 118.554 43.5583 118.442 43.575 118.325L41 116.375L43.75 111.625L46.725 112.875C46.9083 112.742 47.1 112.617 47.3 112.5C47.5 112.383 47.7 112.283 47.9 112.2L48.3 109H53.8L54.2 112.2C54.4167 112.283 54.6208 112.383 54.8125 112.5C55.0042 112.617 55.1917 112.742 55.375 112.875L58.35 111.625L61.1 116.375L58.525 118.325C58.5417 118.442 58.55 118.554 58.55 118.663C58.55 118.771 58.55 118.883 58.55 119C58.55 119.117 58.55 119.229 58.55 119.337C58.55 119.446 58.5333 119.558 58.5 119.675L61.075 121.625L58.325 126.375L55.375 125.125C55.1917 125.258 55 125.383 54.8 125.5C54.6 125.617 54.4 125.717 54.2 125.8L53.8 129H48.3V129M50.05 127H52.025L52.375 124.35C52.8917 124.217 53.3708 124.021 53.8125 123.762C54.2542 123.504 54.6583 123.192 55.025 122.825L57.5 123.85L58.475 122.15L56.325 120.525C56.4083 120.292 56.4667 120.046 56.5 119.788C56.5333 119.529 56.55 119.267 56.55 119C56.55 118.733 56.5333 118.471 56.5 118.212C56.4667 117.954 56.4083 117.708 56.325 117.475L58.475 115.85L57.5 114.15L55.025 115.2C54.6583 114.817 54.2542 114.496 53.8125 114.238C53.3708 113.979 52.8917 113.783 52.375 113.65L52.05 111H50.075L49.725 113.65C49.2083 113.783 48.7292 113.979 48.2875 114.238C47.8458 114.496 47.4417 114.808 47.075 115.175L44.6 114.15L43.625 115.85L45.775 117.45C45.6917 117.7 45.6333 117.95 45.6 118.2C45.5667 118.45 45.55 118.717 45.55 119C45.55 119.267 45.5667 119.525 45.6 119.775C45.6333 120.025 45.6917 120.275 45.775 120.525L43.625 122.15L44.6 123.85L47.075 122.8C47.4417 123.183 47.8458 123.504 48.2875 123.762C48.7292 124.021 49.2083 124.217 49.725 124.35L50.05 127V127M51.1 122.5C52.0667 122.5 52.8917 122.158 53.575 121.475C54.2583 120.792 54.6 119.967 54.6 119C54.6 118.033 54.2583 117.208 53.575 116.525C52.8917 115.842 52.0667 115.5 51.1 115.5C50.1167 115.5 49.2875 115.842 48.6125 116.525C47.9375 117.208 47.6 118.033 47.6 119C47.6 119.967 47.9375 120.792 48.6125 121.475C49.2875 122.158 50.1167 122.5 51.1 122.5V122.5M51.05 119V119V119V119V119V119V119V119V119V119V119V119V119V119V119V119V119V119V119V119V119V119V119V119V119V119V119V119V119V119V119V119V119V119V119V119" fill="#ICON_COLOR#"/>
  </g>
</svg>
