<svg width="20" height="20" viewBox="0 0 20 20" fill="none" xmlns="http://www.w3.org/2000/svg">
  <g transform="translate(-41 -157)">
    <path d="M51 177C49.6333 177 48.3417 176.737 47.125 176.212C45.9083 175.687 44.8458 174.971 43.9375 174.062C43.0292 173.154 42.3125 172.092 41.7875 170.875C41.2625 169.658 41 168.367 41 167C41 165.617 41.2708 164.317 41.8125 163.1C42.3542 161.883 43.0875 160.825 44.0125 159.925C44.9375 159.025 46.0167 158.312 47.25 157.788C48.4833 157.263 49.8 157 51.2 157C52.5333 157 53.7917 157.229 54.975 157.688C56.1583 158.146 57.1958 158.779 58.0875 159.588C58.9792 160.396 59.6875 161.354 60.2125 162.463C60.7375 163.571 61 164.767 61 166.05C61 167.967 60.4167 169.437 59.25 170.462C58.0833 171.487 56.6667 172 55 172H53.15C53 172 52.8958 172.042 52.8375 172.125C52.7792 172.208 52.75 172.3 52.75 172.4C52.75 172.6 52.875 172.888 53.125 173.263C53.375 173.638 53.5 174.067 53.5 174.55C53.5 175.383 53.2708 176 52.8125 176.4C52.3542 176.8 51.75 177 51 177V177M51 167V167V167V167V167V167V167V167V167V167V167V167V167V167V167V167V167M45.5 168C45.9333 168 46.2917 167.858 46.575 167.575C46.8583 167.292 47 166.933 47 166.5C47 166.067 46.8583 165.708 46.575 165.425C46.2917 165.142 45.9333 165 45.5 165C45.0667 165 44.7083 165.142 44.425 165.425C44.1417 165.708 44 166.067 44 166.5C44 166.933 44.1417 167.292 44.425 167.575C44.7083 167.858 45.0667 168 45.5 168V168M48.5 164C48.9333 164 49.2917 163.858 49.575 163.575C49.8583 163.292 50 162.933 50 162.5C50 162.067 49.8583 161.708 49.575 161.425C49.2917 161.142 48.9333 161 48.5 161C48.0667 161 47.7083 161.142 47.425 161.425C47.1417 161.708 47 162.067 47 162.5C47 162.933 47.1417 163.292 47.425 163.575C47.7083 163.858 48.0667 164 48.5 164V164M53.5 164C53.9333 164 54.2917 163.858 54.575 163.575C54.8583 163.292 55 162.933 55 162.5C55 162.067 54.8583 161.708 54.575 161.425C54.2917 161.142 53.9333 161 53.5 161C53.0667 161 52.7083 161.142 52.425 161.425C52.1417 161.708 52 162.067 52 162.5C52 162.933 52.1417 163.292 52.425 163.575C52.7083 163.858 53.0667 164 53.5 164V164M56.5 168C56.9333 168 57.2917 167.858 57.575 167.575C57.8583 167.292 58 166.933 58 166.5C58 166.067 57.8583 165.708 57.575 165.425C57.2917 165.142 56.9333 165 56.5 165C56.0667 165 55.7083 165.142 55.425 165.425C55.1417 165.708 55 166.067 55 166.5C55 166.933 55.1417 167.292 55.425 167.575C55.7083 167.858 56.0667 168 56.5 168V168M51 175C51.15 175 51.2708 174.958 51.3625 174.875C51.4542 174.792 51.5 174.683 51.5 174.55C51.5 174.317 51.375 174.042 51.125 173.725C50.875 173.408 50.75 172.933 50.75 172.3C50.75 171.6 50.9917 171.042 51.475 170.625C51.9583 170.208 52.55 170 53.25 170H55C56.1 170 57.0417 169.679 57.825 169.038C58.6083 168.396 59 167.4 59 166.05C59 164.033 58.2292 162.354 56.6875 161.012C55.1458 159.671 53.3167 159 51.2 159C48.9333 159 47 159.775 45.4 161.325C43.8 162.875 43 164.767 43 167C43 169.217 43.7792 171.104 45.3375 172.663C46.8958 174.221 48.7833 175 51 175V175" fill="#ICON_COLOR#"/>
  </g>
</svg>
